<svg width="175" height="178" viewBox="0 0 175 178" fill="none" xmlns="http://www.w3.org/2000/svg">
<path d="M118.067 3.19997C105.667 9.06664 95.4 20.5333 93.1334 31.3333C91.8 37.3333 95.2667 48.4 103.667 65.4666C112.467 83.0666 112.333 78.5333 103.533 56.9333C96.8667 40.6666 95.9334 32.8 99.8 24.5333C103 17.7333 111.667 9.19997 120.467 4.13331C129 -0.800028 127.8 -1.20003 118.067 3.19997Z" fill="white"/>
<path d="M95.8 13.3335C86.6 21.8668 83.6667 28.6668 84.6 40.4001C85.4 49.7335 88.4667 57.4668 96.3334 70.6668C102.867 81.6001 104.067 86.8001 101.133 91.4668C98.8667 94.8001 98.8667 94.8001 101.533 93.4668C109.4 89.2001 108.467 82.4001 97.4 60.4001C90.2 46.0001 89.1334 42.9335 89 36.2668C89 27.3335 91.5334 21.4668 99.2667 12.6668C102.2 9.33346 104.2 6.66679 103.933 6.66679C103.533 6.66679 99.9334 9.73346 95.8 13.3335Z" fill="white"/>
<path d="M71.6668 73.4666C54.8668 75.8666 40.3335 81.7332 40.3335 86.1332C40.3335 91.3332 66.4668 98.3999 79.9335 96.7999C94.2002 95.0666 100.6 89.3332 98.3335 80.2666C96.2002 71.8666 91.4002 70.6666 71.6668 73.4666Z" fill="white"/>
<path d="M115.8 74.8C116.467 76.5333 117 80.5333 117 83.6C117 88.2667 116.067 90.1333 112.333 94.1333L107.667 98.9333L119 98.1333C134.067 96.9333 154.6 93.4667 160.067 91.2C166.467 88.5333 165.8 84.9333 158.067 81.6C151.4 78.8 132.467 74.1333 121.133 72.5333C114.733 71.6 114.733 71.7333 115.8 74.8Z" fill="white"/>
<path d="M30.6002 77.3332C27.8002 80.6666 27.0002 80.9332 25.6669 79.3332C21.1336 73.8666 5.80022 75.9999 2.33356 82.6666C-3.39978 93.7332 2.20022 112.667 13.6669 121.067C17.0002 123.467 23.6669 128.667 28.7336 132.8C33.6669 136.8 37.6669 139.6 37.6669 138.933C37.6669 137.067 30.0669 126.933 19.9336 115.467C6.46689 100.133 3.80023 91.8666 10.2002 84.3999C13.0002 81.1999 13.6669 80.9332 16.8669 82.3999C22.0669 84.6666 25.2669 91.1999 28.4669 105.333C32.4669 123.733 34.7336 129.333 40.4669 134.8C47.2669 141.333 56.8669 144.533 70.3336 144.4C83.8002 144.4 97.4002 140.667 116.2 132C139.267 121.333 151.534 119.333 157.134 125.467C166.2 135.6 143.667 163.6 120.2 171.333C116.467 172.667 108.867 174.4 103.267 175.467L93.0002 177.333L103.667 176.8C121.534 176 136.734 168.8 152.334 153.867C164.334 142.4 170.6 126.533 173.667 100.133C175.134 88.1332 175 86.3999 172.867 82.9332C171.667 80.6666 168.067 77.5999 165.134 76.1332C162.067 74.5332 160.734 73.9999 162.2 74.9332C176.467 84.7999 175.8 90.3999 159.8 95.9999C138.6 103.2 101.267 106 75.2669 102.133C49.5336 98.2666 33.9336 92.2666 30.8669 85.0666C29.5336 81.7332 29.6669 80.6666 32.2002 77.1999C35.9336 72.1332 34.8669 72.1332 30.6002 77.3332Z" fill="white"/>
</svg>
